<svg xmlns="http://www.w3.org/2000/svg" viewBox="672 808 50 50"><path d="M721.999 833C721.999 846.81 710.807 858 696.999 858C683.192 858 671.999 846.81 671.999 833C671.999 819.195 683.192 808 696.999 808C710.807 808 721.999 819.195 721.999 833Z" fill="#FFFFFF"/><path d="M705.934 842.536C705.606 842.536 705.276 842.451 704.974 842.273L695.159 836.418C694.594 836.078 694.246 835.466 694.246 834.806V822.188C694.246 821.153 695.086 820.313 696.121 820.313C697.156 820.313 697.996 821.153 697.996 822.188V833.741L706.896 839.048C707.784 839.581 708.076 840.731 707.546 841.621C707.194 842.208 706.571 842.536 705.934 842.536Z" fill="#1B97DF"/></svg>